<svg width="100" height="80" viewBox="0 0 100 80" fill="none" xmlns="http://www.w3.org/2000/svg">
<path d="M49.9999 0.00206647C36.7399 0.00203416 24.023 1.59267 14.6463 4.42403C5.26958 7.2554 0.00120443 11.0956 2.50654e-07 15.1C0.00560578 15.4017 0.0411664 15.7034 0.106634 16.0045C0.0745406 16.5465 0.0552888 17.2845 0.0552888 18.7958V31.4133C0.0329077 31.5228 0.0144771 31.6323 0 31.7419C0.0143055 31.8539 0.0327362 31.9657 0.0552888 32.0775V48.7053C0.0329054 48.8148 0.0144748 48.9243 0 49.0339C0.0143081 49.1458 0.0327387 49.2577 0.0552888 49.3695V64.5734C0.0329077 64.6829 0.0144771 64.7924 0 64.902C0.0146447 65.0092 0.0330753 65.1164 0.0552888 65.2236C0.334714 69.169 5.7181 72.9247 15.0529 75.6865C24.3877 78.4482 36.9319 79.9966 49.9999 80C62.8159 79.998 75.14 78.5099 84.4276 75.8431C93.7152 73.1762 99.2571 69.534 99.909 65.6688C99.9473 65.5221 99.9959 65.3819 99.9959 65.2236V64.9338C99.9973 64.9228 99.9987 64.9118 100 64.9008C99.9987 64.8886 99.9973 64.8764 99.9959 64.8642V49.0633C99.9973 49.0523 99.9987 49.0413 100 49.0304C99.9987 49.0191 99.9973 49.0078 99.9959 48.9965V31.7715C99.9973 31.7609 99.9987 31.7504 100 31.7398C99.9987 31.728 99.9973 31.7162 99.9959 31.7045V18.7937C99.9959 17.22 99.9666 16.2935 99.9288 15.536C99.9595 15.3901 99.9832 15.244 99.9999 15.0979C99.9987 11.0935 94.7303 7.25333 85.3536 4.42197C75.9769 1.5906 63.2599 -3.23478e-05 49.9999 4.9322e-10L49.9999 0.00206647ZM96.4964 20.6154V33.7594C92.1324 36.3518 85.4801 38.5293 77.2746 40.0514C69.0691 41.5735 59.6298 42.3808 49.9999 42.3842C40.3892 42.3804 30.9683 41.5758 22.7744 40.0591C14.5805 38.5423 7.93126 36.3722 3.55873 33.7877V20.679C7.25507 23.4875 13.6572 25.8965 21.9367 27.5941C30.2163 29.2917 39.9923 30.2 49.9999 30.2014C60.0414 30.1983 69.8472 29.2822 78.1404 27.5725C86.4336 25.8627 92.8299 23.4385 96.4964 20.6154V20.6154ZM96.4964 37.2821V51.0514C92.1324 53.6438 85.4801 55.8213 77.2746 57.3434C69.0691 58.8655 59.6298 59.6729 49.9999 59.6763C40.3892 59.6724 30.9683 58.8678 22.7744 57.3511C14.5804 55.8343 7.93123 53.6642 3.55873 51.0797V37.2962C7.24396 40.1087 13.6413 42.5221 21.9218 44.2237C30.2022 45.9253 39.9841 46.8367 49.9999 46.8398C60.0306 46.839 69.8285 45.927 78.1205 44.2226C86.4124 42.5181 92.8151 40.0999 96.4964 37.2821V37.2821ZM96.4964 54.5742V65.2236C96.4964 66.0995 96.5193 66.4541 96.5399 66.8914C92.1854 69.491 85.5318 71.6757 77.3169 73.203C69.1021 74.7304 59.6469 75.5408 49.9999 75.5444C40.3757 75.5414 30.9415 74.7353 22.7386 73.2152C14.5357 71.6951 7.88316 69.5201 3.51526 66.9302C3.53693 66.4917 3.5587 66.1199 3.5587 65.2236V54.5917C7.24576 57.4035 13.6439 59.8161 21.9242 61.5171C30.2045 63.2181 39.9854 64.129 49.9999 64.1318C60.0305 64.1309 69.8284 63.219 78.1204 61.5146C86.4123 59.8101 92.815 57.3919 96.4964 54.5742H96.4964Z" fill="white"/>
</svg>
