<svg width="100" height="59" viewBox="0 0 100 59" fill="none" xmlns="http://www.w3.org/2000/svg">
<path d="M69.5505 0.0141728C68.87 0.0817862 68.2224 0.413125 67.6955 0.963245C67.1686 1.51337 66.788 2.25564 66.6051 3.08939L56.4869 51.1067C56.4588 51.237 56.4357 51.3689 56.4176 51.502L55.9325 53.6986C55.7073 54.7822 55.8309 55.9348 56.2761 56.9029C56.7212 57.8709 57.4514 58.5751 58.3061 58.8606C59.1608 59.1461 60.0699 58.9894 60.8335 58.425C61.597 57.8607 62.1525 56.9349 62.3777 55.8513L62.8974 53.3032L73.0503 5.24204C73.1787 4.5918 73.183 3.91214 73.0628 3.25938C72.9427 2.60662 72.7016 1.99957 72.3594 1.48852C72.0173 0.977482 71.5841 0.577173 71.0956 0.320774C70.6071 0.0643758 70.0774 -0.0407289 69.5505 0.0141728ZM3.15837 2.73793C2.72147 2.76669 2.29331 2.90427 1.89836 3.14283C1.5034 3.38139 1.14938 3.71624 0.856511 4.12828C0.563641 4.54032 0.33766 5.02146 0.191472 5.54423C0.0452843 6.067 -0.018246 6.62116 0.00450903 7.17507C0.027264 7.72897 0.135859 8.27177 0.324091 8.77246C0.512324 9.27315 0.776508 9.72192 1.10156 10.0932C1.4266 10.4644 1.80615 10.7508 2.21851 10.9361C2.63088 11.1213 3.06799 11.2018 3.50488 11.1728H9.67284C10.1136 11.1807 10.5513 11.0775 10.9603 10.8691C11.3694 10.6607 11.7417 10.3513 12.0556 9.95886C12.3696 9.56645 12.6188 9.09886 12.789 8.58324C12.9591 8.06763 13.0467 7.51429 13.0467 6.95537C13.0467 6.39645 12.9591 5.84311 12.789 5.3275C12.6188 4.81189 12.3696 4.34429 12.0556 3.95188C11.7417 3.55947 11.3694 3.25008 10.9603 3.04168C10.5513 2.83328 10.1136 2.73003 9.67284 2.73793H3.50488C3.38946 2.7303 3.27379 2.7303 3.15837 2.73793ZM48.4478 4.4952C47.7063 4.63075 47.0225 5.07965 46.5073 5.76922L29.9786 26.461C29.6633 26.8536 29.4128 27.3219 29.2418 27.8386C29.0708 28.3553 28.9828 28.91 28.9828 29.4703C28.9828 30.0306 29.0708 30.5853 29.2418 31.102C29.4128 31.6187 29.6633 32.087 29.9786 32.4797L46.5073 53.2154C46.819 53.6048 47.1882 53.9126 47.5937 54.1211C47.9992 54.3297 48.4332 54.4349 48.8708 54.4308C49.3084 54.4267 49.7411 54.3134 50.1441 54.0973C50.5472 53.8813 50.9127 53.5666 51.2199 53.1715C51.5271 52.7763 51.7698 52.3082 51.9343 51.7941C52.0988 51.28 52.1818 50.7298 52.1786 50.175C52.1754 49.6202 52.086 49.0716 51.9156 48.5606C51.7451 48.0496 51.497 47.5862 51.1852 47.1967L37.0821 29.4923L51.1852 11.7439C51.699 11.1307 52.0456 10.3262 52.175 9.44677C52.3045 8.56735 52.21 7.65853 51.9053 6.85166C51.6006 6.04478 51.1014 5.38163 50.4799 4.95804C49.8584 4.53445 49.1467 4.37236 48.4478 4.4952ZM79.7727 4.4952C79.1386 4.57344 78.5356 4.88085 78.0353 5.38089C77.535 5.88093 77.1584 6.55259 76.9504 7.31601C76.7424 8.07944 76.7116 8.90253 76.8618 9.68746C77.012 10.4724 77.3368 11.1862 77.7975 11.7439L91.9007 29.4923L77.7975 47.1967C77.4858 47.5862 77.2377 48.0496 77.0672 48.5606C76.8968 49.0716 76.8074 49.6202 76.8042 50.175C76.7977 51.2955 77.1426 52.3733 77.7629 53.1715C78.3832 53.9696 79.2282 54.4226 80.112 54.4308C80.9958 54.4391 81.846 54.0019 82.4755 53.2154L99.0042 32.4797C99.3195 32.087 99.57 31.6187 99.741 31.102C99.9119 30.5853 100 30.0306 100 29.4703C100 28.91 99.9119 28.3553 99.741 27.8386C99.57 27.3219 99.3195 26.8536 99.0042 26.461L82.4755 5.76922C82.1292 5.31339 81.7065 4.9622 81.2386 4.74166C80.7707 4.52112 80.2697 4.43688 79.7727 4.4952ZM3.15837 17.7626C2.27611 17.8208 1.44825 18.321 0.856896 19.1531C0.265541 19.9853 -0.0408637 21.0811 0.00508694 22.1996C0.0510376 23.3182 0.44558 24.3678 1.10192 25.1175C1.75826 25.8672 2.62263 26.2557 3.50488 26.1974H19.1673C19.6081 26.2053 20.0458 26.1021 20.4548 25.8937C20.8639 25.6853 21.2362 25.3759 21.5501 24.9835C21.8641 24.5911 22.1133 24.1235 22.2835 23.6079C22.4536 23.0923 22.5412 22.5389 22.5412 21.98C22.5412 21.4211 22.4536 20.8677 22.2835 20.3521C22.1133 19.8365 21.8641 19.3689 21.5501 18.9765C21.2362 18.5841 20.8639 18.2747 20.4548 18.0663C20.0458 17.8579 19.6081 17.7546 19.1673 17.7626H3.50488C3.38946 17.7549 3.27379 17.7549 3.15837 17.7626ZM3.15837 32.7872C2.72147 32.8159 2.29331 32.9535 1.89836 33.1921C1.5034 33.4306 1.14938 33.7655 0.856511 34.1775C0.563641 34.5896 0.33766 35.0707 0.191472 35.5935C0.0452843 36.1162 -0.018246 36.6704 0.00450903 37.2243C0.027264 37.7782 0.135859 38.321 0.324091 38.8217C0.512324 39.3224 0.776508 39.7712 1.10156 40.1424C1.4266 40.5136 1.80615 40.8 2.21851 40.9853C2.63088 41.1705 3.06799 41.251 3.50488 41.222H9.67284C10.1136 41.2299 10.5513 41.1267 10.9603 40.9183C11.3694 40.7099 11.7417 40.4005 12.0556 40.0081C12.3696 39.6157 12.6188 39.1481 12.789 38.6325C12.9591 38.1169 13.0467 37.5635 13.0467 37.0046C13.0467 36.4457 12.9591 35.8923 12.789 35.3767C12.6188 34.8611 12.3696 34.3935 12.0556 34.0011C11.7417 33.6087 11.3694 33.2993 10.9603 33.0909C10.5513 32.8825 10.1136 32.7793 9.67284 32.7872H3.50488C3.38946 32.7795 3.27379 32.7795 3.15837 32.7872ZM3.15837 47.8118C2.72147 47.8405 2.29331 47.9781 1.89836 48.2167C1.5034 48.4552 1.14938 48.7901 0.856511 49.2021C0.563641 49.6142 0.33766 50.0953 0.191472 50.6181C0.0452843 51.1409 -0.018246 51.695 0.00450903 52.2489C0.027264 52.8028 0.135859 53.3456 0.324091 53.8463C0.512324 54.347 0.776508 54.7958 1.10156 55.167C1.4266 55.5382 1.80615 55.8247 2.21851 56.0099C2.63088 56.1952 3.06799 56.2756 3.50488 56.2467H19.1673C19.6081 56.2546 20.0458 56.1513 20.4548 55.9429C20.8639 55.7345 21.2362 55.4251 21.5501 55.0327C21.8641 54.6403 22.1133 54.1727 22.2835 53.6571C22.4536 53.1415 22.5412 52.5881 22.5412 52.0292C22.5412 51.4703 22.4536 50.917 22.2835 50.4014C22.1133 49.8857 21.8641 49.4182 21.5501 49.0257C21.2362 48.6333 20.8639 48.3239 20.4548 48.1155C20.0458 47.9071 19.6081 47.8039 19.1673 47.8118H3.50488C3.38946 47.8042 3.27379 47.8042 3.15837 47.8118Z" fill="white"/>
</svg>
