<svg width="100" height="80" viewBox="0 0 100 80" fill="none" xmlns="http://www.w3.org/2000/svg">
<path d="M97.3192 52.9619L83.6591 41.5752C69.9821 30.1816 56.3094 18.7914 42.6199 7.41176C42.4647 7.18472 42.2299 6.99262 41.949 6.87037C41.5256 6.5595 40.9469 6.22419 40.2509 6.0251C35.2196 4.6105 30.184 3.20288 25.1485 1.80225L19.3414 0.181576C18.2974 -0.104837 16.8677 -0.118809 15.9327 0.632152C15.7901 0.747416 15.744 0.869665 15.6392 0.984929C15.6224 0.998901 15.5972 1.00239 15.5805 1.01636C15.526 1.06876 15.5134 1.13861 15.4673 1.1945C15.3708 1.33771 15.2576 1.47393 15.1989 1.61364C15.1905 1.64508 15.1863 1.67302 15.178 1.70445C14.9138 2.48336 15.1738 3.22035 15.3121 3.55915L17.4253 8.82287C17.6433 9.36426 17.8614 9.90215 18.0752 10.4401L18.1297 10.5902C18.1339 10.5972 18.1423 10.6042 18.1465 10.6112C19.5217 14.0447 20.9011 17.4851 22.289 20.9081C22.5238 21.4949 22.9137 22.0468 23.53 22.5707C23.5762 22.6231 23.6265 22.6755 23.6852 22.7244L72.7955 63.636C72.8123 63.65 72.8332 63.664 72.85 63.6779L78.7703 68.6133C80.4222 69.986 82.4515 70.6916 84.8037 70.709C84.8121 70.709 84.8163 70.709 84.8205 70.709C87.202 70.709 89.2481 70.0105 90.8875 68.6308L97.3067 63.2763C100.896 60.2829 100.896 55.9448 97.3192 52.9619ZM41.0769 10.0803L87.9064 49.0709L82.1287 53.8805L35.3496 14.9074C37.4166 13.161 39.4459 11.4495 41.0769 10.0803ZM21.6642 10.5658L27.7648 5.48371C31.2825 6.4652 34.8045 7.44669 38.3181 8.43167C36.4355 10.0104 34.1211 11.9629 31.8066 13.9189C31.8024 13.9224 31.7982 13.9224 31.7982 13.9259C31.7941 13.9294 31.7899 13.9329 31.7899 13.9364C31.7899 13.9364 31.7857 13.9399 31.7815 13.9434C29.4545 15.9029 27.1275 17.8693 25.2365 19.4516C24.0374 16.4897 22.8508 13.5277 21.6642 10.5658ZM27.2574 21.7254C28.8926 20.3527 30.9219 18.6412 32.989 16.8948L79.7556 55.8575L73.9821 60.6671L27.2574 21.7254ZM94.9335 61.3028L88.506 66.6608C87.5081 67.4991 86.3047 67.9078 84.8289 67.9078C83.3446 67.8973 82.1706 67.4921 81.1434 66.6329L76.351 62.6441L83.3027 56.8529C83.3069 56.8494 83.3111 56.8494 83.3153 56.8459C83.3194 56.8424 83.3195 56.839 83.3236 56.8355L90.2753 51.0443L94.9377 54.9284C97.1851 56.8075 97.1851 59.4237 94.9335 61.3028Z" fill="white"/>
<path d="M2.86369 10.8976C2.37732 10.4924 1.65616 10.3772 1.03562 10.5972C0.406702 10.8103 0 11.3202 0 11.8861V76.9473C0.0167712 78.9417 1.28719 79.9965 3.71902 79.9965L9.53863 79.993C9.54283 79.993 9.54702 79.9965 9.55541 79.9965C9.56379 79.9965 9.56379 79.993 9.57218 79.993H11.4212H16.7041C16.7083 79.993 16.7167 79.9965 16.7209 79.9965C16.7251 79.9965 16.7335 79.993 16.7377 79.993L66.4182 80L78.4474 79.9965L79.0092 79.993L81.7891 79.9965C82.4683 79.9965 83.0805 79.6542 83.3362 79.1338C83.6004 78.6134 83.4536 78.0091 82.9756 77.6074L2.86369 10.8976ZM66.4057 77.2057H61.9236V69.3084C61.9236 68.5365 61.1689 67.9113 60.2464 67.9113C59.324 67.9113 58.5693 68.54 58.5693 69.3084V77.2022H54.7455V72.4974C54.7455 71.7255 53.9908 71.1002 53.0684 71.1002C52.1459 71.1002 51.3912 71.729 51.3912 72.4974V77.2022H47.5087V69.4132C47.5087 68.6413 46.754 68.0161 45.8316 68.0161C44.9091 68.0161 44.1544 68.6448 44.1544 69.4132V77.2022H40.1252V72.6057C40.1252 71.8337 39.3705 71.2085 38.448 71.2085C37.5256 71.2085 36.7709 71.8372 36.7709 72.6057V77.2022H32.9848V69.4167C32.9848 68.6448 32.2301 68.0196 31.3077 68.0196C30.3853 68.0196 29.6306 68.6483 29.6306 69.4167V77.2022H25.6139V72.6022C25.6139 71.8302 24.8591 71.205 23.9367 71.205C23.0143 71.205 22.2596 71.8337 22.2596 72.6022V77.2022H18.4106V69.5389C18.4106 68.767 17.6559 68.1418 16.7335 68.1418C15.8111 68.1418 15.0564 68.7705 15.0564 69.5389V77.1987H11.438H11.2283V72.7244C11.2283 71.9525 10.4736 71.3273 9.55121 71.3273C8.62879 71.3273 7.87409 71.956 7.87409 72.7244V77.1987H3.67709C3.54292 77.1987 3.42972 77.1987 3.37102 77.1987C3.36263 77.1359 3.35844 77.0521 3.35844 76.9403V15.2602L77.7304 77.1987L66.4057 77.2057Z" fill="white"/>
<path d="M17.5511 62.6964H36.163H40.1084C40.7876 62.6964 41.3998 62.3541 41.6555 61.8337C41.9197 61.3133 41.7729 60.709 41.295 60.3073L18.1381 41.0199C17.6517 40.6182 16.9347 40.5064 16.3058 40.7195C15.6769 40.9326 15.2702 41.4425 15.2702 42.0083V60.8313C15.2912 61.963 16.18 62.6964 17.5511 62.6964ZM18.6328 45.3824L36.0623 59.9022L20.2554 59.8987H18.6328V45.3824Z" fill="white"/>
</svg>
